<svg xmlns="http://www.w3.org/2000/svg" version="1.1" xmlns:xlink="http://www.w3.org/1999/xlink" xmlns:svgjs="http://svgjs.com/svgjs" width="768" height="1024" preserveAspectRatio="none" viewBox="0 0 768 1024"><g mask="url(&quot;#SvgjsMask4460&quot;)" fill="none"><rect width="768" height="1024" x="0" y="0" fill="url(#SvgjsLinearGradient4461)"></rect><use xlink:href="#SvgjsSymbol4468" x="0" y="0"></use><use xlink:href="#SvgjsSymbol4468" x="0" y="720"></use><use xlink:href="#SvgjsSymbol4468" x="720" y="0"></use><use xlink:href="#SvgjsSymbol4468" x="720" y="720"></use></g><defs><mask id="SvgjsMask4460"><rect width="768" height="1024" fill="#ffffff"></rect></mask><linearGradient x1="50%" y1="0%" x2="50%" y2="100%" gradientUnits="userSpaceOnUse" id="SvgjsLinearGradient4461"><stop stop-color="rgba(25, 39, 52, 1)" offset="0"></stop><stop stop-color="rgba(24, 33, 42, 1)" offset="0.33"></stop><stop stop-color="rgba(20, 26, 31, 1)" offset="0.67"></stop><stop stop-color="rgba(12, 13, 14, 1)" offset="1"></stop></linearGradient><path d="M-1 0 a1 1 0 1 0 2 0 a1 1 0 1 0 -2 0z" id="SvgjsPath4462"></path><path d="M-3 0 a3 3 0 1 0 6 0 a3 3 0 1 0 -6 0z" id="SvgjsPath4467"></path><path d="M-5 0 a5 5 0 1 0 10 0 a5 5 0 1 0 -10 0z" id="SvgjsPath4463"></path><path d="M2 -2 L-2 2z" id="SvgjsPath4466"></path><path d="M6 -6 L-6 6z" id="SvgjsPath4465"></path><path d="M30 -30 L-30 30z" id="SvgjsPath4464"></path></defs><symbol id="SvgjsSymbol4468"><use xlink:href="#SvgjsPath4462" x="30" y="30" stroke="rgba(62, 72, 82, 1)"></use><use xlink:href="#SvgjsPath4463" x="30" y="90" stroke="rgba(62, 72, 82, 1)"></use><use xlink:href="#SvgjsPath4464" x="30" y="150" stroke="rgba(25, 39, 52, 1)" stroke-width="3"></use><use xlink:href="#SvgjsPath4465" x="30" y="210" stroke="rgba(25, 39, 52, 1)"></use><use xlink:href="#SvgjsPath4466" x="30" y="270" stroke="rgba(25, 39, 52, 1)"></use><use xlink:href="#SvgjsPath4463" x="30" y="330" stroke="rgba(25, 39, 52, 1)"></use><use xlink:href="#SvgjsPath4467" x="30" y="390" stroke="rgba(25, 39, 52, 1)"></use><use xlink:href="#SvgjsPath4467" x="30" y="450" stroke="rgba(25, 39, 52, 1)"></use><use xlink:href="#SvgjsPath4463" x="30" y="510" stroke="rgba(25, 39, 52, 1)"></use><use xlink:href="#SvgjsPath4465" x="30" y="570" stroke="rgba(25, 39, 52, 1)"></use><use xlink:href="#SvgjsPath4462" x="30" y="630" stroke="rgba(25, 39, 52, 1)"></use><use xlink:href="#SvgjsPath4464" x="30" y="690" stroke="rgba(62, 72, 82, 1)" stroke-width="3"></use><use xlink:href="#SvgjsPath4465" x="90" y="30" stroke="rgba(25, 39, 52, 1)"></use><use xlink:href="#SvgjsPath4463" x="90" y="90" stroke="rgba(62, 72, 82, 1)"></use><use xlink:href="#SvgjsPath4463" x="90" y="150" stroke="rgba(25, 39, 52, 1)"></use><use xlink:href="#SvgjsPath4465" x="90" y="210" stroke="rgba(25, 39, 52, 1)"></use><use xlink:href="#SvgjsPath4462" x="90" y="270" stroke="rgba(25, 39, 52, 1)"></use><use xlink:href="#SvgjsPath4463" x="90" y="330" stroke="rgba(62, 72, 82, 1)"></use><use xlink:href="#SvgjsPath4465" x="90" y="390" stroke="rgba(25, 39, 52, 1)"></use><use xlink:href="#SvgjsPath4465" x="90" y="450" stroke="rgba(62, 72, 82, 1)"></use><use xlink:href="#SvgjsPath4467" x="90" y="510" stroke="rgba(62, 72, 82, 1)"></use><use xlink:href="#SvgjsPath4466" x="90" y="570" stroke="rgba(62, 72, 82, 1)"></use><use xlink:href="#SvgjsPath4467" x="90" y="630" stroke="rgba(62, 72, 82, 1)"></use><use xlink:href="#SvgjsPath4463" x="90" y="690" stroke="rgba(25, 39, 52, 1)"></use><use xlink:href="#SvgjsPath4463" x="150" y="30" stroke="rgba(25, 39, 52, 1)"></use><use xlink:href="#SvgjsPath4465" x="150" y="90" stroke="rgba(62, 72, 82, 1)"></use><use xlink:href="#SvgjsPath4467" x="150" y="150" stroke="rgba(25, 39, 52, 1)"></use><use xlink:href="#SvgjsPath4463" x="150" y="210" stroke="rgba(25, 39, 52, 1)"></use><use xlink:href="#SvgjsPath4465" x="150" y="270" stroke="rgba(62, 72, 82, 1)"></use><use xlink:href="#SvgjsPath4464" x="150" y="330" stroke="rgba(62, 72, 82, 1)" stroke-width="3"></use><use xlink:href="#SvgjsPath4463" x="150" y="390" stroke="rgba(25, 39, 52, 1)"></use><use xlink:href="#SvgjsPath4465" x="150" y="450" stroke="rgba(25, 39, 52, 1)"></use><use xlink:href="#SvgjsPath4467" x="150" y="510" stroke="rgba(25, 39, 52, 1)"></use><use xlink:href="#SvgjsPath4463" x="150" y="570" stroke="rgba(62, 72, 82, 1)"></use><use xlink:href="#SvgjsPath4465" x="150" y="630" stroke="rgba(62, 72, 82, 1)"></use><use xlink:href="#SvgjsPath4467" x="150" y="690" stroke="rgba(62, 72, 82, 1)"></use><use xlink:href="#SvgjsPath4465" x="210" y="30" stroke="rgba(62, 72, 82, 1)"></use><use xlink:href="#SvgjsPath4466" x="210" y="90" stroke="rgba(25, 39, 52, 1)"></use><use xlink:href="#SvgjsPath4465" x="210" y="150" stroke="rgba(25, 39, 52, 1)"></use><use xlink:href="#SvgjsPath4464" x="210" y="210" stroke="rgba(25, 39, 52, 1)" stroke-width="3"></use><use xlink:href="#SvgjsPath4463" x="210" y="270" stroke="rgba(25, 39, 52, 1)"></use><use xlink:href="#SvgjsPath4463" x="210" y="330" stroke="rgba(62, 72, 82, 1)"></use><use xlink:href="#SvgjsPath4466" x="210" y="390" stroke="rgba(25, 39, 52, 1)"></use><use xlink:href="#SvgjsPath4465" x="210" y="450" stroke="rgba(62, 72, 82, 1)"></use><use xlink:href="#SvgjsPath4463" x="210" y="510" stroke="rgba(62, 72, 82, 1)"></use><use xlink:href="#SvgjsPath4465" x="210" y="570" stroke="rgba(25, 39, 52, 1)"></use><use xlink:href="#SvgjsPath4463" x="210" y="630" stroke="rgba(62, 72, 82, 1)"></use><use xlink:href="#SvgjsPath4465" x="210" y="690" stroke="rgba(62, 72, 82, 1)"></use><use xlink:href="#SvgjsPath4467" x="270" y="30" stroke="rgba(25, 39, 52, 1)"></use><use xlink:href="#SvgjsPath4463" x="270" y="90" stroke="rgba(62, 72, 82, 1)"></use><use xlink:href="#SvgjsPath4467" x="270" y="150" stroke="rgba(62, 72, 82, 1)"></use><use xlink:href="#SvgjsPath4466" x="270" y="210" stroke="rgba(62, 72, 82, 1)"></use><use xlink:href="#SvgjsPath4465" x="270" y="270" stroke="rgba(62, 72, 82, 1)"></use><use xlink:href="#SvgjsPath4463" x="270" y="330" stroke="rgba(25, 39, 52, 1)"></use><use xlink:href="#SvgjsPath4465" x="270" y="390" stroke="rgba(25, 39, 52, 1)"></use><use xlink:href="#SvgjsPath4463" x="270" y="450" stroke="rgba(25, 39, 52, 1)"></use><use xlink:href="#SvgjsPath4465" x="270" y="510" stroke="rgba(25, 39, 52, 1)"></use><use xlink:href="#SvgjsPath4462" x="270" y="570" stroke="rgba(62, 72, 82, 1)"></use><use xlink:href="#SvgjsPath4463" x="270" y="630" stroke="rgba(62, 72, 82, 1)"></use><use xlink:href="#SvgjsPath4463" x="270" y="690" stroke="rgba(62, 72, 82, 1)"></use><use xlink:href="#SvgjsPath4465" x="330" y="30" stroke="rgba(62, 72, 82, 1)"></use><use xlink:href="#SvgjsPath4463" x="330" y="90" stroke="rgba(62, 72, 82, 1)"></use><use xlink:href="#SvgjsPath4465" x="330" y="150" stroke="rgba(62, 72, 82, 1)"></use><use xlink:href="#SvgjsPath4463" x="330" y="210" stroke="rgba(62, 72, 82, 1)"></use><use xlink:href="#SvgjsPath4467" x="330" y="270" stroke="rgba(25, 39, 52, 1)"></use><use xlink:href="#SvgjsPath4464" x="330" y="330" stroke="rgba(62, 72, 82, 1)" stroke-width="3"></use><use xlink:href="#SvgjsPath4466" x="330" y="390" stroke="rgba(62, 72, 82, 1)"></use><use xlink:href="#SvgjsPath4463" x="330" y="450" stroke="rgba(62, 72, 82, 1)"></use><use xlink:href="#SvgjsPath4465" x="330" y="510" stroke="rgba(62, 72, 82, 1)"></use><use xlink:href="#SvgjsPath4466" x="330" y="570" stroke="rgba(25, 39, 52, 1)"></use><use xlink:href="#SvgjsPath4466" x="330" y="630" stroke="rgba(25, 39, 52, 1)"></use><use xlink:href="#SvgjsPath4467" x="330" y="690" stroke="rgba(62, 72, 82, 1)"></use><use xlink:href="#SvgjsPath4463" x="390" y="30" stroke="rgba(62, 72, 82, 1)"></use><use xlink:href="#SvgjsPath4465" x="390" y="90" stroke="rgba(25, 39, 52, 1)"></use><use xlink:href="#SvgjsPath4467" x="390" y="150" stroke="rgba(62, 72, 82, 1)"></use><use xlink:href="#SvgjsPath4465" x="390" y="210" stroke="rgba(62, 72, 82, 1)"></use><use xlink:href="#SvgjsPath4465" x="390" y="270" stroke="rgba(62, 72, 82, 1)"></use><use xlink:href="#SvgjsPath4462" x="390" y="330" stroke="rgba(62, 72, 82, 1)"></use><use xlink:href="#SvgjsPath4464" x="390" y="390" stroke="rgba(25, 39, 52, 1)" stroke-width="3"></use><use xlink:href="#SvgjsPath4463" x="390" y="450" stroke="rgba(62, 72, 82, 1)"></use><use xlink:href="#SvgjsPath4467" x="390" y="510" stroke="rgba(62, 72, 82, 1)"></use><use xlink:href="#SvgjsPath4463" x="390" y="570" stroke="rgba(25, 39, 52, 1)"></use><use xlink:href="#SvgjsPath4462" x="390" y="630" stroke="rgba(62, 72, 82, 1)"></use><use xlink:href="#SvgjsPath4465" x="390" y="690" stroke="rgba(62, 72, 82, 1)"></use><use xlink:href="#SvgjsPath4463" x="450" y="30" stroke="rgba(25, 39, 52, 1)"></use><use xlink:href="#SvgjsPath4466" x="450" y="90" stroke="rgba(25, 39, 52, 1)"></use><use xlink:href="#SvgjsPath4466" x="450" y="150" stroke="rgba(25, 39, 52, 1)"></use><use xlink:href="#SvgjsPath4463" x="450" y="210" stroke="rgba(25, 39, 52, 1)"></use><use xlink:href="#SvgjsPath4465" x="450" y="270" stroke="rgba(62, 72, 82, 1)"></use><use xlink:href="#SvgjsPath4466" x="450" y="330" stroke="rgba(25, 39, 52, 1)"></use><use xlink:href="#SvgjsPath4465" x="450" y="390" stroke="rgba(62, 72, 82, 1)"></use><use xlink:href="#SvgjsPath4463" x="450" y="450" stroke="rgba(62, 72, 82, 1)"></use><use xlink:href="#SvgjsPath4463" x="450" y="510" stroke="rgba(62, 72, 82, 1)"></use><use xlink:href="#SvgjsPath4463" x="450" y="570" stroke="rgba(25, 39, 52, 1)"></use><use xlink:href="#SvgjsPath4466" x="450" y="630" stroke="rgba(25, 39, 52, 1)"></use><use xlink:href="#SvgjsPath4463" x="450" y="690" stroke="rgba(62, 72, 82, 1)"></use><use xlink:href="#SvgjsPath4465" x="510" y="30" stroke="rgba(62, 72, 82, 1)"></use><use xlink:href="#SvgjsPath4464" x="510" y="90" stroke="rgba(62, 72, 82, 1)" stroke-width="3"></use><use xlink:href="#SvgjsPath4465" x="510" y="150" stroke="rgba(25, 39, 52, 1)"></use><use xlink:href="#SvgjsPath4464" x="510" y="210" stroke="rgba(25, 39, 52, 1)" stroke-width="3"></use><use xlink:href="#SvgjsPath4466" x="510" y="270" stroke="rgba(62, 72, 82, 1)"></use><use xlink:href="#SvgjsPath4467" x="510" y="330" stroke="rgba(62, 72, 82, 1)"></use><use xlink:href="#SvgjsPath4466" x="510" y="390" stroke="rgba(62, 72, 82, 1)"></use><use xlink:href="#SvgjsPath4467" x="510" y="450" stroke="rgba(62, 72, 82, 1)"></use><use xlink:href="#SvgjsPath4463" x="510" y="510" stroke="rgba(25, 39, 52, 1)"></use><use xlink:href="#SvgjsPath4465" x="510" y="570" stroke="rgba(25, 39, 52, 1)"></use><use xlink:href="#SvgjsPath4464" x="510" y="630" stroke="rgba(62, 72, 82, 1)" stroke-width="3"></use><use xlink:href="#SvgjsPath4464" x="510" y="690" stroke="rgba(62, 72, 82, 1)" stroke-width="3"></use><use xlink:href="#SvgjsPath4464" x="570" y="30" stroke="rgba(62, 72, 82, 1)" stroke-width="3"></use><use xlink:href="#SvgjsPath4465" x="570" y="90" stroke="rgba(62, 72, 82, 1)"></use><use xlink:href="#SvgjsPath4465" x="570" y="150" stroke="rgba(25, 39, 52, 1)"></use><use xlink:href="#SvgjsPath4465" x="570" y="210" stroke="rgba(25, 39, 52, 1)"></use><use xlink:href="#SvgjsPath4463" x="570" y="270" stroke="rgba(62, 72, 82, 1)"></use><use xlink:href="#SvgjsPath4465" x="570" y="330" stroke="rgba(62, 72, 82, 1)"></use><use xlink:href="#SvgjsPath4463" x="570" y="390" stroke="rgba(62, 72, 82, 1)"></use><use xlink:href="#SvgjsPath4467" x="570" y="450" stroke="rgba(62, 72, 82, 1)"></use><use xlink:href="#SvgjsPath4462" x="570" y="510" stroke="rgba(25, 39, 52, 1)"></use><use xlink:href="#SvgjsPath4463" x="570" y="570" stroke="rgba(25, 39, 52, 1)"></use><use xlink:href="#SvgjsPath4465" x="570" y="630" stroke="rgba(62, 72, 82, 1)"></use><use xlink:href="#SvgjsPath4465" x="570" y="690" stroke="rgba(62, 72, 82, 1)"></use><use xlink:href="#SvgjsPath4466" x="630" y="30" stroke="rgba(62, 72, 82, 1)"></use><use xlink:href="#SvgjsPath4462" x="630" y="90" stroke="rgba(62, 72, 82, 1)"></use><use xlink:href="#SvgjsPath4465" x="630" y="150" stroke="rgba(62, 72, 82, 1)"></use><use xlink:href="#SvgjsPath4466" x="630" y="210" stroke="rgba(25, 39, 52, 1)"></use><use xlink:href="#SvgjsPath4463" x="630" y="270" stroke="rgba(25, 39, 52, 1)"></use><use xlink:href="#SvgjsPath4466" x="630" y="330" stroke="rgba(62, 72, 82, 1)"></use><use xlink:href="#SvgjsPath4462" x="630" y="390" stroke="rgba(25, 39, 52, 1)"></use><use xlink:href="#SvgjsPath4465" x="630" y="450" stroke="rgba(62, 72, 82, 1)"></use><use xlink:href="#SvgjsPath4464" x="630" y="510" stroke="rgba(25, 39, 52, 1)" stroke-width="3"></use><use xlink:href="#SvgjsPath4466" x="630" y="570" stroke="rgba(25, 39, 52, 1)"></use><use xlink:href="#SvgjsPath4466" x="630" y="630" stroke="rgba(62, 72, 82, 1)"></use><use xlink:href="#SvgjsPath4462" x="630" y="690" stroke="rgba(25, 39, 52, 1)"></use><use xlink:href="#SvgjsPath4462" x="690" y="30" stroke="rgba(25, 39, 52, 1)"></use><use xlink:href="#SvgjsPath4462" x="690" y="90" stroke="rgba(62, 72, 82, 1)"></use><use xlink:href="#SvgjsPath4465" x="690" y="150" stroke="rgba(62, 72, 82, 1)"></use><use xlink:href="#SvgjsPath4466" x="690" y="210" stroke="rgba(62, 72, 82, 1)"></use><use xlink:href="#SvgjsPath4465" x="690" y="270" stroke="rgba(25, 39, 52, 1)"></use><use xlink:href="#SvgjsPath4463" x="690" y="330" stroke="rgba(25, 39, 52, 1)"></use><use xlink:href="#SvgjsPath4463" x="690" y="390" stroke="rgba(62, 72, 82, 1)"></use><use xlink:href="#SvgjsPath4466" x="690" y="450" stroke="rgba(62, 72, 82, 1)"></use><use xlink:href="#SvgjsPath4463" x="690" y="510" stroke="rgba(62, 72, 82, 1)"></use><use xlink:href="#SvgjsPath4462" x="690" y="570" stroke="rgba(25, 39, 52, 1)"></use><use xlink:href="#SvgjsPath4465" x="690" y="630" stroke="rgba(25, 39, 52, 1)"></use><use xlink:href="#SvgjsPath4466" x="690" y="690" stroke="rgba(62, 72, 82, 1)"></use></symbol></svg>