<svg xmlns="http://www.w3.org/2000/svg" version="1.1" xmlns:xlink="http://www.w3.org/1999/xlink" xmlns:svgjs="http://svgjs.com/svgjs" width="1920" height="1080" preserveAspectRatio="none" viewBox="0 0 1920 1080"><g mask="url(&quot;#SvgjsMask4329&quot;)" fill="none"><rect width="1920" height="1080" x="0" y="0" fill="url(#SvgjsLinearGradient4330)"></rect><use xlink:href="#SvgjsSymbol4337" x="0" y="0"></use><use xlink:href="#SvgjsSymbol4337" x="0" y="720"></use><use xlink:href="#SvgjsSymbol4337" x="720" y="0"></use><use xlink:href="#SvgjsSymbol4337" x="720" y="720"></use><use xlink:href="#SvgjsSymbol4337" x="1440" y="0"></use><use xlink:href="#SvgjsSymbol4337" x="1440" y="720"></use></g><defs><mask id="SvgjsMask4329"><rect width="1920" height="1080" fill="#ffffff"></rect></mask><linearGradient x1="10.94%" y1="-19.44%" x2="89.06%" y2="119.44%" gradientUnits="userSpaceOnUse" id="SvgjsLinearGradient4330"><stop stop-color="rgba(25, 39, 52, 1)" offset="0"></stop><stop stop-color="rgba(24, 33, 42, 1)" offset="0.33"></stop><stop stop-color="rgba(20, 26, 31, 1)" offset="0.67"></stop><stop stop-color="rgba(12, 13, 14, 1)" offset="1"></stop></linearGradient><path d="M-1 0 a1 1 0 1 0 2 0 a1 1 0 1 0 -2 0z" id="SvgjsPath4332"></path><path d="M-3 0 a3 3 0 1 0 6 0 a3 3 0 1 0 -6 0z" id="SvgjsPath4334"></path><path d="M-5 0 a5 5 0 1 0 10 0 a5 5 0 1 0 -10 0z" id="SvgjsPath4333"></path><path d="M2 -2 L-2 2z" id="SvgjsPath4335"></path><path d="M6 -6 L-6 6z" id="SvgjsPath4331"></path><path d="M30 -30 L-30 30z" id="SvgjsPath4336"></path></defs><symbol id="SvgjsSymbol4337"><use xlink:href="#SvgjsPath4331" x="30" y="30" stroke="rgba(62, 72, 82, 1)"></use><use xlink:href="#SvgjsPath4332" x="30" y="90" stroke="rgba(25, 39, 52, 1)"></use><use xlink:href="#SvgjsPath4333" x="30" y="150" stroke="rgba(62, 72, 82, 1)"></use><use xlink:href="#SvgjsPath4334" x="30" y="210" stroke="rgba(62, 72, 82, 1)"></use><use xlink:href="#SvgjsPath4332" x="30" y="270" stroke="rgba(25, 39, 52, 1)"></use><use xlink:href="#SvgjsPath4333" x="30" y="330" stroke="rgba(62, 72, 82, 1)"></use><use xlink:href="#SvgjsPath4331" x="30" y="390" stroke="rgba(62, 72, 82, 1)"></use><use xlink:href="#SvgjsPath4331" x="30" y="450" stroke="rgba(25, 39, 52, 1)"></use><use xlink:href="#SvgjsPath4335" x="30" y="510" stroke="rgba(25, 39, 52, 1)"></use><use xlink:href="#SvgjsPath4333" x="30" y="570" stroke="rgba(62, 72, 82, 1)"></use><use xlink:href="#SvgjsPath4332" x="30" y="630" stroke="rgba(62, 72, 82, 1)"></use><use xlink:href="#SvgjsPath4333" x="30" y="690" stroke="rgba(25, 39, 52, 1)"></use><use xlink:href="#SvgjsPath4333" x="90" y="30" stroke="rgba(25, 39, 52, 1)"></use><use xlink:href="#SvgjsPath4331" x="90" y="90" stroke="rgba(62, 72, 82, 1)"></use><use xlink:href="#SvgjsPath4331" x="90" y="150" stroke="rgba(62, 72, 82, 1)"></use><use xlink:href="#SvgjsPath4331" x="90" y="210" stroke="rgba(62, 72, 82, 1)"></use><use xlink:href="#SvgjsPath4331" x="90" y="270" stroke="rgba(62, 72, 82, 1)"></use><use xlink:href="#SvgjsPath4335" x="90" y="330" stroke="rgba(62, 72, 82, 1)"></use><use xlink:href="#SvgjsPath4332" x="90" y="390" stroke="rgba(62, 72, 82, 1)"></use><use xlink:href="#SvgjsPath4331" x="90" y="450" stroke="rgba(25, 39, 52, 1)"></use><use xlink:href="#SvgjsPath4333" x="90" y="510" stroke="rgba(62, 72, 82, 1)"></use><use xlink:href="#SvgjsPath4334" x="90" y="570" stroke="rgba(62, 72, 82, 1)"></use><use xlink:href="#SvgjsPath4333" x="90" y="630" stroke="rgba(62, 72, 82, 1)"></use><use xlink:href="#SvgjsPath4331" x="90" y="690" stroke="rgba(25, 39, 52, 1)"></use><use xlink:href="#SvgjsPath4331" x="150" y="30" stroke="rgba(25, 39, 52, 1)"></use><use xlink:href="#SvgjsPath4333" x="150" y="90" stroke="rgba(62, 72, 82, 1)"></use><use xlink:href="#SvgjsPath4333" x="150" y="150" stroke="rgba(62, 72, 82, 1)"></use><use xlink:href="#SvgjsPath4331" x="150" y="210" stroke="rgba(25, 39, 52, 1)"></use><use xlink:href="#SvgjsPath4331" x="150" y="270" stroke="rgba(62, 72, 82, 1)"></use><use xlink:href="#SvgjsPath4334" x="150" y="330" stroke="rgba(25, 39, 52, 1)"></use><use xlink:href="#SvgjsPath4333" x="150" y="390" stroke="rgba(25, 39, 52, 1)"></use><use xlink:href="#SvgjsPath4333" x="150" y="450" stroke="rgba(62, 72, 82, 1)"></use><use xlink:href="#SvgjsPath4331" x="150" y="510" stroke="rgba(62, 72, 82, 1)"></use><use xlink:href="#SvgjsPath4335" x="150" y="570" stroke="rgba(62, 72, 82, 1)"></use><use xlink:href="#SvgjsPath4334" x="150" y="630" stroke="rgba(62, 72, 82, 1)"></use><use xlink:href="#SvgjsPath4332" x="150" y="690" stroke="rgba(25, 39, 52, 1)"></use><use xlink:href="#SvgjsPath4332" x="210" y="30" stroke="rgba(25, 39, 52, 1)"></use><use xlink:href="#SvgjsPath4334" x="210" y="90" stroke="rgba(62, 72, 82, 1)"></use><use xlink:href="#SvgjsPath4334" x="210" y="150" stroke="rgba(25, 39, 52, 1)"></use><use xlink:href="#SvgjsPath4331" x="210" y="210" stroke="rgba(25, 39, 52, 1)"></use><use xlink:href="#SvgjsPath4332" x="210" y="270" stroke="rgba(25, 39, 52, 1)"></use><use xlink:href="#SvgjsPath4335" x="210" y="330" stroke="rgba(25, 39, 52, 1)"></use><use xlink:href="#SvgjsPath4331" x="210" y="390" stroke="rgba(62, 72, 82, 1)"></use><use xlink:href="#SvgjsPath4335" x="210" y="450" stroke="rgba(25, 39, 52, 1)"></use><use xlink:href="#SvgjsPath4333" x="210" y="510" stroke="rgba(25, 39, 52, 1)"></use><use xlink:href="#SvgjsPath4333" x="210" y="570" stroke="rgba(25, 39, 52, 1)"></use><use xlink:href="#SvgjsPath4331" x="210" y="630" stroke="rgba(62, 72, 82, 1)"></use><use xlink:href="#SvgjsPath4335" x="210" y="690" stroke="rgba(25, 39, 52, 1)"></use><use xlink:href="#SvgjsPath4333" x="270" y="30" stroke="rgba(62, 72, 82, 1)"></use><use xlink:href="#SvgjsPath4331" x="270" y="90" stroke="rgba(62, 72, 82, 1)"></use><use xlink:href="#SvgjsPath4331" x="270" y="150" stroke="rgba(62, 72, 82, 1)"></use><use xlink:href="#SvgjsPath4331" x="270" y="210" stroke="rgba(62, 72, 82, 1)"></use><use xlink:href="#SvgjsPath4333" x="270" y="270" stroke="rgba(62, 72, 82, 1)"></use><use xlink:href="#SvgjsPath4332" x="270" y="330" stroke="rgba(62, 72, 82, 1)"></use><use xlink:href="#SvgjsPath4332" x="270" y="390" stroke="rgba(25, 39, 52, 1)"></use><use xlink:href="#SvgjsPath4334" x="270" y="450" stroke="rgba(25, 39, 52, 1)"></use><use xlink:href="#SvgjsPath4335" x="270" y="510" stroke="rgba(25, 39, 52, 1)"></use><use xlink:href="#SvgjsPath4331" x="270" y="570" stroke="rgba(62, 72, 82, 1)"></use><use xlink:href="#SvgjsPath4333" x="270" y="630" stroke="rgba(62, 72, 82, 1)"></use><use xlink:href="#SvgjsPath4334" x="270" y="690" stroke="rgba(62, 72, 82, 1)"></use><use xlink:href="#SvgjsPath4333" x="330" y="30" stroke="rgba(25, 39, 52, 1)"></use><use xlink:href="#SvgjsPath4335" x="330" y="90" stroke="rgba(25, 39, 52, 1)"></use><use xlink:href="#SvgjsPath4335" x="330" y="150" stroke="rgba(25, 39, 52, 1)"></use><use xlink:href="#SvgjsPath4333" x="330" y="210" stroke="rgba(62, 72, 82, 1)"></use><use xlink:href="#SvgjsPath4335" x="330" y="270" stroke="rgba(25, 39, 52, 1)"></use><use xlink:href="#SvgjsPath4335" x="330" y="330" stroke="rgba(62, 72, 82, 1)"></use><use xlink:href="#SvgjsPath4332" x="330" y="390" stroke="rgba(25, 39, 52, 1)"></use><use xlink:href="#SvgjsPath4331" x="330" y="450" stroke="rgba(25, 39, 52, 1)"></use><use xlink:href="#SvgjsPath4331" x="330" y="510" stroke="rgba(62, 72, 82, 1)"></use><use xlink:href="#SvgjsPath4331" x="330" y="570" stroke="rgba(62, 72, 82, 1)"></use><use xlink:href="#SvgjsPath4333" x="330" y="630" stroke="rgba(25, 39, 52, 1)"></use><use xlink:href="#SvgjsPath4333" x="330" y="690" stroke="rgba(62, 72, 82, 1)"></use><use xlink:href="#SvgjsPath4331" x="390" y="30" stroke="rgba(62, 72, 82, 1)"></use><use xlink:href="#SvgjsPath4331" x="390" y="90" stroke="rgba(25, 39, 52, 1)"></use><use xlink:href="#SvgjsPath4332" x="390" y="150" stroke="rgba(25, 39, 52, 1)"></use><use xlink:href="#SvgjsPath4331" x="390" y="210" stroke="rgba(62, 72, 82, 1)"></use><use xlink:href="#SvgjsPath4333" x="390" y="270" stroke="rgba(62, 72, 82, 1)"></use><use xlink:href="#SvgjsPath4335" x="390" y="330" stroke="rgba(62, 72, 82, 1)"></use><use xlink:href="#SvgjsPath4331" x="390" y="390" stroke="rgba(62, 72, 82, 1)"></use><use xlink:href="#SvgjsPath4333" x="390" y="450" stroke="rgba(62, 72, 82, 1)"></use><use xlink:href="#SvgjsPath4331" x="390" y="510" stroke="rgba(62, 72, 82, 1)"></use><use xlink:href="#SvgjsPath4331" x="390" y="570" stroke="rgba(62, 72, 82, 1)"></use><use xlink:href="#SvgjsPath4333" x="390" y="630" stroke="rgba(25, 39, 52, 1)"></use><use xlink:href="#SvgjsPath4332" x="390" y="690" stroke="rgba(62, 72, 82, 1)"></use><use xlink:href="#SvgjsPath4333" x="450" y="30" stroke="rgba(62, 72, 82, 1)"></use><use xlink:href="#SvgjsPath4334" x="450" y="90" stroke="rgba(62, 72, 82, 1)"></use><use xlink:href="#SvgjsPath4332" x="450" y="150" stroke="rgba(25, 39, 52, 1)"></use><use xlink:href="#SvgjsPath4332" x="450" y="210" stroke="rgba(25, 39, 52, 1)"></use><use xlink:href="#SvgjsPath4335" x="450" y="270" stroke="rgba(25, 39, 52, 1)"></use><use xlink:href="#SvgjsPath4333" x="450" y="330" stroke="rgba(25, 39, 52, 1)"></use><use xlink:href="#SvgjsPath4331" x="450" y="390" stroke="rgba(25, 39, 52, 1)"></use><use xlink:href="#SvgjsPath4333" x="450" y="450" stroke="rgba(62, 72, 82, 1)"></use><use xlink:href="#SvgjsPath4334" x="450" y="510" stroke="rgba(25, 39, 52, 1)"></use><use xlink:href="#SvgjsPath4333" x="450" y="570" stroke="rgba(62, 72, 82, 1)"></use><use xlink:href="#SvgjsPath4335" x="450" y="630" stroke="rgba(62, 72, 82, 1)"></use><use xlink:href="#SvgjsPath4335" x="450" y="690" stroke="rgba(62, 72, 82, 1)"></use><use xlink:href="#SvgjsPath4336" x="510" y="30" stroke="rgba(62, 72, 82, 1)" stroke-width="3"></use><use xlink:href="#SvgjsPath4335" x="510" y="90" stroke="rgba(62, 72, 82, 1)"></use><use xlink:href="#SvgjsPath4335" x="510" y="150" stroke="rgba(62, 72, 82, 1)"></use><use xlink:href="#SvgjsPath4334" x="510" y="210" stroke="rgba(62, 72, 82, 1)"></use><use xlink:href="#SvgjsPath4333" x="510" y="270" stroke="rgba(62, 72, 82, 1)"></use><use xlink:href="#SvgjsPath4332" x="510" y="330" stroke="rgba(25, 39, 52, 1)"></use><use xlink:href="#SvgjsPath4331" x="510" y="390" stroke="rgba(62, 72, 82, 1)"></use><use xlink:href="#SvgjsPath4336" x="510" y="450" stroke="rgba(25, 39, 52, 1)" stroke-width="3"></use><use xlink:href="#SvgjsPath4331" x="510" y="510" stroke="rgba(25, 39, 52, 1)"></use><use xlink:href="#SvgjsPath4331" x="510" y="570" stroke="rgba(25, 39, 52, 1)"></use><use xlink:href="#SvgjsPath4331" x="510" y="630" stroke="rgba(25, 39, 52, 1)"></use><use xlink:href="#SvgjsPath4331" x="510" y="690" stroke="rgba(62, 72, 82, 1)"></use><use xlink:href="#SvgjsPath4331" x="570" y="30" stroke="rgba(25, 39, 52, 1)"></use><use xlink:href="#SvgjsPath4334" x="570" y="90" stroke="rgba(25, 39, 52, 1)"></use><use xlink:href="#SvgjsPath4334" x="570" y="150" stroke="rgba(62, 72, 82, 1)"></use><use xlink:href="#SvgjsPath4335" x="570" y="210" stroke="rgba(62, 72, 82, 1)"></use><use xlink:href="#SvgjsPath4331" x="570" y="270" stroke="rgba(25, 39, 52, 1)"></use><use xlink:href="#SvgjsPath4334" x="570" y="330" stroke="rgba(25, 39, 52, 1)"></use><use xlink:href="#SvgjsPath4335" x="570" y="390" stroke="rgba(62, 72, 82, 1)"></use><use xlink:href="#SvgjsPath4331" x="570" y="450" stroke="rgba(25, 39, 52, 1)"></use><use xlink:href="#SvgjsPath4332" x="570" y="510" stroke="rgba(62, 72, 82, 1)"></use><use xlink:href="#SvgjsPath4334" x="570" y="570" stroke="rgba(25, 39, 52, 1)"></use><use xlink:href="#SvgjsPath4333" x="570" y="630" stroke="rgba(25, 39, 52, 1)"></use><use xlink:href="#SvgjsPath4331" x="570" y="690" stroke="rgba(62, 72, 82, 1)"></use><use xlink:href="#SvgjsPath4333" x="630" y="30" stroke="rgba(25, 39, 52, 1)"></use><use xlink:href="#SvgjsPath4333" x="630" y="90" stroke="rgba(25, 39, 52, 1)"></use><use xlink:href="#SvgjsPath4334" x="630" y="150" stroke="rgba(62, 72, 82, 1)"></use><use xlink:href="#SvgjsPath4331" x="630" y="210" stroke="rgba(25, 39, 52, 1)"></use><use xlink:href="#SvgjsPath4334" x="630" y="270" stroke="rgba(25, 39, 52, 1)"></use><use xlink:href="#SvgjsPath4336" x="630" y="330" stroke="rgba(62, 72, 82, 1)" stroke-width="3"></use><use xlink:href="#SvgjsPath4331" x="630" y="390" stroke="rgba(62, 72, 82, 1)"></use><use xlink:href="#SvgjsPath4332" x="630" y="450" stroke="rgba(62, 72, 82, 1)"></use><use xlink:href="#SvgjsPath4332" x="630" y="510" stroke="rgba(62, 72, 82, 1)"></use><use xlink:href="#SvgjsPath4331" x="630" y="570" stroke="rgba(62, 72, 82, 1)"></use><use xlink:href="#SvgjsPath4331" x="630" y="630" stroke="rgba(62, 72, 82, 1)"></use><use xlink:href="#SvgjsPath4333" x="630" y="690" stroke="rgba(25, 39, 52, 1)"></use><use xlink:href="#SvgjsPath4333" x="690" y="30" stroke="rgba(25, 39, 52, 1)"></use><use xlink:href="#SvgjsPath4333" x="690" y="90" stroke="rgba(62, 72, 82, 1)"></use><use xlink:href="#SvgjsPath4331" x="690" y="150" stroke="rgba(25, 39, 52, 1)"></use><use xlink:href="#SvgjsPath4333" x="690" y="210" stroke="rgba(25, 39, 52, 1)"></use><use xlink:href="#SvgjsPath4331" x="690" y="270" stroke="rgba(62, 72, 82, 1)"></use><use xlink:href="#SvgjsPath4331" x="690" y="330" stroke="rgba(25, 39, 52, 1)"></use><use xlink:href="#SvgjsPath4333" x="690" y="390" stroke="rgba(62, 72, 82, 1)"></use><use xlink:href="#SvgjsPath4335" x="690" y="450" stroke="rgba(25, 39, 52, 1)"></use><use xlink:href="#SvgjsPath4331" x="690" y="510" stroke="rgba(25, 39, 52, 1)"></use><use xlink:href="#SvgjsPath4332" x="690" y="570" stroke="rgba(62, 72, 82, 1)"></use><use xlink:href="#SvgjsPath4333" x="690" y="630" stroke="rgba(25, 39, 52, 1)"></use><use xlink:href="#SvgjsPath4333" x="690" y="690" stroke="rgba(62, 72, 82, 1)"></use></symbol></svg>